<?xml version="1.0" encoding="UTF-8" standalone="no"?>
<svg
   height="40"
   viewBox="0 -960 800 800"
   width="40"
   version="1.1"
   id="svg1"
   sodipodi:docname="video.svg"
   inkscape:version="1.3.1 (91b66b0783, 2023-11-16, custom)"
   xmlns:inkscape="http://www.inkscape.org/namespaces/inkscape"
   xmlns:sodipodi="http://sodipodi.sourceforge.net/DTD/sodipodi-0.dtd"
   xmlns="http://www.w3.org/2000/svg"
   xmlns:svg="http://www.w3.org/2000/svg">
  <defs
     id="defs1" />
  <sodipodi:namedview
     id="namedview1"
     pagecolor="#505050"
     bordercolor="#eeeeee"
     borderopacity="1"
     inkscape:showpageshadow="0"
     inkscape:pageopacity="0"
     inkscape:pagecheckerboard="0"
     inkscape:deskcolor="#505050"
     inkscape:zoom="24.291667"
     inkscape:cx="20.006861"
     inkscape:cy="20.006861"
     inkscape:window-width="2560"
     inkscape:window-height="1370"
     inkscape:window-x="0"
     inkscape:window-y="0"
     inkscape:window-maximized="1"
     inkscape:current-layer="svg1" />
  <path
     d="M 303,-390 570,-560 303,-730 Z m 97,230 q -82,0 -155,-31.5 -73,-31.5 -127.5,-86 Q 63,-332 31.5,-405 0,-478 0,-560 q 0,-83 31.5,-156 31.5,-73 86,-127 54.5,-54 127.5,-85.5 73,-31.5 155,-31.5 83,0 156,31.5 73,31.5 127,85.5 54,54 85.5,127 31.5,73 31.5,156 0,82 -31.5,155 -31.5,73 -85.5,127.5 -54,54.5 -127,86 -73,31.5 -156,31.5 z m 0,-60 q 142,0 241,-99.5 99,-99.5 99,-240.5 0,-142 -99,-241 -99,-99 -241,-99 -141,0 -240.5,99 -99.5,99 -99.5,241 0,141 99.5,240.5 Q 259,-220 400,-220 Z m 0,-340 z"
     id="path1"
     style="fill:#f9f9f9" />
</svg>
